<svg xmlns="http://www.w3.org/2000/svg" viewBox="0 0 160 48" fill="none">
  <!-- Heart icon -->
  <path d="M24 10C19 3 9 3 7 10C5 17 12 24 17 29C19 31 24 34 24 34C24 34 29 31 31 29C36 24 43 17 41 10C39 3 29 3 24 10Z" fill="url(#heartGradient)" stroke="none"/>
  <!-- Person 1 silhouette (left) -->
  <circle cx="16" cy="13" r="3.5" fill="white" opacity="0.9"/>
  <path d="M11 21C11 19 13 18 16 18C19 18 21 19 21 21L21 26L11 26Z" fill="white" opacity="0.9"/>
  <!-- Person 2 silhouette (right) -->
  <circle cx="32" cy="13" r="3.5" fill="white" opacity="0.9"/>
  <path d="M27 21C27 19 29 18 32 18C35 18 37 19 37 21L37 26L27 26Z" fill="white" opacity="0.9"/>
  <!-- Text KimiK (no space) -->
  <text x="50" y="33" font-family="system-ui, -apple-system, sans-serif" font-size="28" font-weight="700" fill="#111827">Kimi</text>
  <text x="106" y="33" font-family="system-ui, -apple-system, sans-serif" font-size="28" font-weight="700" fill="#E11D48">K</text>
  <defs>
    <linearGradient id="heartGradient" x1="7" y1="3" x2="41" y2="34">
      <stop offset="0%" stop-color="#F43F5E"/>
      <stop offset="100%" stop-color="#A855F7"/>
    </linearGradient>
  </defs>
</svg>
